<svg xmlns="http://www.w3.org/2000/svg" viewBox="0 0 1520 660" width="1520" height="660" font-family="Inter, 'Helvetica Neue', Helvetica, Arial, sans-serif">
  <defs>
    <style>
      .panel   { fill:#FFFFFF; stroke:#C7D0DA; stroke-width:1.4; stroke-dasharray:6 5; }
      .ptitle  { font-size:14px; font-weight:700; fill:#1F2A37; }
      .badge   { fill:#2F4858; }
      .bnum    { font-size:12px; font-weight:700; fill:#FFFFFF; }
      .card    { stroke-width:1.2; rx:10; }
      .ctitle  { font-size:12.5px; font-weight:700; fill:#1F2A37; }
      .csub    { font-size:10px; fill:#6B7785; }
      .body    { font-size:10.5px; fill:#3D4A5A; }
      .small   { font-size:9.5px; fill:#6B7785; }
      .eq      { font-size:11.5px; fill:#1F2A37; }
      .sub     { font-size:8.5px; }
      .lab     { font-size:9px; fill:#8A94A0; }
      .chip    { fill:#FFFFFF; stroke:#C3D3E2; stroke-width:1; rx:9; }
      .chiptxt { font-size:9.5px; fill:#33475B; }
      .flow    { stroke:#7C8B9C; stroke-width:2; fill:none; marker-end:url(#ah); }
      .flowd   { stroke:#9AA7B4; stroke-width:1.6; fill:none; stroke-dasharray:5 4; marker-end:url(#ahd); }
    </style>

    <marker id="ah" viewBox="0 0 10 10" refX="9" refY="5" markerWidth="7" markerHeight="7" orient="auto-start-reverse">
      <path d="M0,0 L10,5 L0,10 z" fill="#7C8B9C"/>
    </marker>
    <marker id="ahd" viewBox="0 0 10 10" refX="9" refY="5" markerWidth="6" markerHeight="6" orient="auto-start-reverse">
      <path d="M0,0 L10,5 L0,10 z" fill="#9AA7B4"/>
    </marker>

    <!-- procedural rainfall textures: low frequency = coarse model, high = km-scale -->
    <filter id="fCoarse" x="0" y="0" width="100%" height="100%">
      <feTurbulence type="fractalNoise" baseFrequency="0.022" numOctaves="2" seed="11" result="n"/>
      <feColorMatrix in="n" type="matrix"
        values="0 0 0 0 0.13  0 0 0 0 0.40  0 0 0 0 0.62  0 1.7 0 0 -0.42"/>
    </filter>
    <filter id="fMid" x="0" y="0" width="100%" height="100%">
      <feTurbulence type="fractalNoise" baseFrequency="0.05" numOctaves="3" seed="4" result="n"/>
      <feColorMatrix in="n" type="matrix"
        values="0 0 0 0 0.10  0 0 0 0 0.45  0 0 0 0 0.55  0 1.7 0 0 -0.42"/>
    </filter>
    <filter id="fFine" x="0" y="0" width="100%" height="100%">
      <feTurbulence type="fractalNoise" baseFrequency="0.115" numOctaves="4" seed="19" result="n"/>
      <feColorMatrix in="n" type="matrix"
        values="0 0 0 0 0.06  0 0 0 0 0.38  0 0 0 0 0.58  0 1.8 0 0 -0.45"/>
    </filter>
    <filter id="fNoise" x="0" y="0" width="100%" height="100%">
      <feTurbulence type="turbulence" baseFrequency="0.85" numOctaves="3" seed="3" result="n"/>
      <feColorMatrix in="n" type="matrix"
        values="0 0 0 0 0.45  0 0 0 0 0.47  0 0 0 0 0.52  0 1.4 0 0 -0.15"/>
    </filter>
    <filter id="fMix" x="0" y="0" width="100%" height="100%">
      <feTurbulence type="fractalNoise" baseFrequency="0.3" numOctaves="4" seed="8" result="n"/>
      <feColorMatrix in="n" type="matrix"
        values="0 0 0 0 0.28  0 0 0 0 0.44  0 0 0 0 0.58  0 1.6 0 0 -0.32"/>
    </filter>
    <filter id="fTerrain" x="0" y="0" width="100%" height="100%">
      <feTurbulence type="fractalNoise" baseFrequency="0.09" numOctaves="3" seed="23" result="n"/>
      <feColorMatrix in="n" type="matrix"
        values="0 0 0 0 0.42  0 0 0 0 0.36  0 0 0 0 0.26  0 1.6 0 0 -0.40"/>
    </filter>
  </defs>

  <!-- ================= PANEL 1 : CONDITIONING ================= -->
  <rect class="panel" x="24" y="46" width="250" height="574" rx="14"/>
  <circle class="badge" cx="44" cy="46" r="14"/>
  <text class="bnum" x="44" y="50" text-anchor="middle">1</text>
  <text class="ptitle" x="66" y="51">Conditioning  c</text>

  <!-- ERA5 -->
  <rect class="card" x="40" y="76" width="218" height="162" fill="#EEF3F9" stroke="#B3C7DA"/>
  <text class="ctitle" x="52" y="97">ERA5 reanalysis — background</text>
  <text class="csub"   x="52" y="112">0.25° (~28 km), daily, 1981–2025</text>
  <g>
    <rect x="52" y="120" width="86" height="86" rx="4" fill="#F7FAFD" stroke="#C9D8E6"/>
    <rect x="52" y="120" width="86" height="86" filter="url(#fCoarse)"/>
    <g stroke="#FFFFFF" stroke-width="0.9" opacity="0.85">
      <path d="M73.5,120 V206 M95,120 V206 M116.5,120 V206 M52,141.5 H138 M52,163 H138 M52,184.5 H138"/>
    </g>
    <rect x="52" y="120" width="86" height="86" rx="4" fill="none" stroke="#8FAAC4"/>
  </g>
  <text class="lab" x="95" y="219" text-anchor="middle">28 km cells</text>
  <text class="body" x="146" y="136">• tp, tcwv, CAPE</text>
  <text class="body" x="146" y="153">• u, v, q, t, w, z</text>
  <text class="small" x="152" y="167">@ 850/700/500/200 hPa</text>
  <text class="body" x="146" y="184">• IVT, 850–200 shear</text>
  <text class="body" x="146" y="201">• msl, t2m, u10, v10</text>

  <!-- IMERG -->
  <rect class="card" x="40" y="252" width="218" height="150" fill="#F6F1FA" stroke="#C3AFD6" stroke-dasharray="5 4"/>
  <text class="ctitle" x="52" y="273">GPM IMERG Final</text>
  <text class="csub"   x="52" y="288">0.1° (~10 km), daily, 2000-06–</text>
  <rect x="52" y="296" width="72" height="72" rx="4" fill="#FBF8FD" stroke="#D3C4E2"/>
  <rect x="52" y="296" width="72" height="72" filter="url(#fMid)"/>
  <rect x="52" y="296" width="72" height="72" rx="4" fill="none" stroke="#B49FCB"/>
  <text class="lab" x="88" y="381" text-anchor="middle">10 km cells</text>
  <text class="ctitle" x="134" y="312" font-size="10.5">switchable role</text>
  <text class="body" x="134" y="329" font-size="9.8">condition → into prior</text>
  <text class="body" x="134" y="345" font-size="9.8">assimilate → into</text>
  <text class="body" x="134" y="358" font-size="9.8">likelihood (default)</text>
  <text class="small" x="134" y="376" font-size="8.5">see §3.6</text>

  <!-- statics -->
  <rect class="card" x="40" y="416" width="218" height="188" fill="#F1F5EF" stroke="#B7C9AE"/>
  <text class="ctitle" x="52" y="437">Static + calendar</text>
  <rect x="52" y="448" width="72" height="72" rx="4" fill="#F9FBF8" stroke="#C9D8C2"/>
  <rect x="52" y="448" width="72" height="72" filter="url(#fTerrain)"/>
  <rect x="52" y="448" width="72" height="72" rx="4" fill="none" stroke="#A5BC99"/>
  <text class="lab" x="88" y="533" text-anchor="middle">orography</text>
  <text class="body" x="134" y="464" font-size="9.8">• elevation, slope</text>
  <text class="body" x="134" y="481" font-size="9.8">• land–sea mask</text>
  <text class="body" x="134" y="498" font-size="9.8">• lat/lon sin·cos</text>
  <text class="body" x="134" y="515" font-size="9.8">  positional enc.</text>
  <text class="body" x="52"  y="556" font-size="9.8">• sin/cos day-of-year (seasonality)</text>
  <text class="small" x="52" y="576">All channels regridded to the 0.05° target grid;</text>
  <text class="small" x="52" y="590">precipitation conservatively, states bilinearly.</text>

  <!-- arrow 1 -> 2 -->
  <path class="flow" d="M274,200 C288,200 288,180 300,180"/>

  <!-- ================= PANEL 2 : GENERATOR ================= -->
  <rect class="panel" x="300" y="46" width="430" height="296" rx="14"/>
  <circle class="badge" cx="320" cy="46" r="14"/>
  <text class="bnum" x="320" y="50" text-anchor="middle">2</text>
  <text class="ptitle" x="342" y="51">Conditional flow-matching generator</text>

  <rect class="card" x="316" y="76" width="398" height="196" fill="#EDF3FC" stroke="#AFC7E6"/>
  <!-- U-Net glyph -->
  <g>
    <!-- skips -->
    <g stroke="#9BB6DC" stroke-width="1.3" fill="none" stroke-dasharray="4 3">
      <path d="M377,128 C420,100 594,100 637,128"/>
      <path d="M411,146 C446,124 568,124 603,146"/>
      <path d="M445,163 C470,150 544,150 569,163"/>
    </g>
    <g fill="#8FB3E0" stroke="#5D89C4" stroke-width="1">
      <rect x="355" y="128" width="22" height="106" rx="3"/>
      <rect x="389" y="146" width="22" height="70"  rx="3"/>
      <rect x="423" y="163" width="22" height="36"  rx="3"/>
      <rect x="569" y="163" width="22" height="36"  rx="3"/>
      <rect x="603" y="146" width="22" height="70"  rx="3"/>
      <rect x="637" y="128" width="22" height="106" rx="3"/>
    </g>
    <circle cx="507" cy="181" r="17" fill="#7C6BC4" stroke="#5B4CA0" stroke-width="1"/>
    <text x="507" y="185" text-anchor="middle" font-size="8.5" fill="#FFFFFF" font-weight="700">attn</text>
    <path d="M451,181 H488" stroke="#5D89C4" stroke-width="1.4" marker-end="url(#ah)" opacity="0.7"/>
    <path d="M526,181 H563" stroke="#5D89C4" stroke-width="1.4" marker-end="url(#ah)" opacity="0.7"/>
  </g>
  <text class="eq" x="330" y="112">x<tspan class="sub" dy="4">t</tspan><tspan dy="-4"> ⊕ c</tspan></text>
  <text class="lab" x="330" y="126">state + conditioning</text>
  <text class="eq" x="666" y="112">u<tspan class="sub" dy="4">θ</tspan></text>
  <text class="lab" x="666" y="126">velocity</text>
  <text class="body" x="515" y="255" text-anchor="middle">ADM U-Net · 64 base ch · mult [1,2,3,4] · self-attention @16² · ~30 M params</text>
  <text class="lab"  x="515" y="268" text-anchor="middle">trained on random 128×128 crops of a 256×256 wide domain (84–96.8°E, 16–28.8°N)</text>

  <!-- training target strip -->
  <rect class="card" x="316" y="284" width="398" height="44" fill="#F2F8F3" stroke="#A9CDB4" stroke-dasharray="5 4"/>
  <text class="ctitle" x="332" y="302" fill="#2E6B47">Training target  x₁</text>
  <text class="body" x="332" y="318">CHIRPS v2.0 daily <tspan font-weight="700">0.05° (~5 km)</tspan>, 1981–2025 — land only, gauge-blended</text>

  <!-- arrow 2 -> 4 -->
  <path class="flow" d="M730,180 H756"/>
  <text class="lab" x="743" y="170" text-anchor="middle">u</text>

  <!-- ================= PANEL 3 : TRAINING ================= -->
  <rect class="panel" x="300" y="362" width="430" height="258" rx="14"/>
  <circle class="badge" cx="320" cy="362" r="14"/>
  <text class="bnum" x="320" y="366" text-anchor="middle">3</text>
  <text class="ptitle" x="342" y="367">Rectified-flow training objective</text>

  <rect class="card" x="316" y="392" width="398" height="212" fill="#FFF8EC" stroke="#E3C692"/>
  <text class="eq" x="515" y="418" text-anchor="middle">x<tspan class="sub" dy="4">t</tspan><tspan dy="-4"> = t·x</tspan><tspan class="sub" dy="4">1</tspan><tspan dy="-4"> + (1−t)·x</tspan><tspan class="sub" dy="4">0</tspan><tspan dy="-4">,     x</tspan><tspan class="sub" dy="4">0</tspan><tspan dy="-4"> ~ N(0, I)</tspan></text>
  <text class="eq" x="515" y="441" text-anchor="middle">L = E ‖ u<tspan class="sub" dy="4">θ</tspan><tspan dy="-4">(x</tspan><tspan class="sub" dy="4">t</tspan><tspan dy="-4">, t, c) − (x</tspan><tspan class="sub" dy="4">1</tspan><tspan dy="-4"> − x</tspan><tspan class="sub" dy="4">0</tspan><tspan dy="-4">) ‖²</tspan></text>

  <!-- interpolant strip -->
  <g>
    <rect x="366" y="458" width="62" height="62" rx="4" fill="#F5F5F7" stroke="#CBCFD6"/>
    <rect x="366" y="458" width="62" height="62" filter="url(#fNoise)"/>
    <rect x="366" y="458" width="62" height="62" rx="4" fill="none" stroke="#B7BDC6"/>

    <rect x="484" y="458" width="62" height="62" rx="4" fill="#F4F7FA" stroke="#CBD6E0"/>
    <rect x="484" y="458" width="62" height="62" filter="url(#fMix)"/>
    <rect x="484" y="458" width="62" height="62" rx="4" fill="none" stroke="#AFBECD"/>

    <rect x="602" y="458" width="62" height="62" rx="4" fill="#F5FAFD" stroke="#BBD1E2"/>
    <rect x="602" y="458" width="62" height="62" filter="url(#fFine)"/>
    <rect x="602" y="458" width="62" height="62" rx="4" fill="none" stroke="#8FAAC4"/>

    <path class="flow" d="M434,489 H478"/>
    <path class="flow" d="M552,489 H596"/>
    <text class="lab" x="397" y="534" text-anchor="middle">t = 0   noise</text>
    <text class="lab" x="515" y="534" text-anchor="middle">t = 0.5</text>
    <text class="lab" x="633" y="534" text-anchor="middle">t = 1   5 km field</text>
  </g>

  <rect x="332" y="548" width="366" height="42" rx="8" fill="#FDF3E0" stroke="#E3C692"/>
  <text class="body" x="344" y="565">Conditioning dropout 10% → the same weights also give an</text>
  <text class="body" x="344" y="580"><tspan font-weight="700">unconditional prior p(x₁)</tspan> for Manshausen-style pure SDA (no retraining)</text>

  <path class="flowd" d="M515,342 V388"/>
  <text class="lab" x="524" y="358">trains</text>

  <!-- ================= PANEL 4 : GUIDED SAMPLING / DA ================= -->
  <rect class="panel" x="756" y="46" width="330" height="574" rx="14"/>
  <circle class="badge" cx="776" cy="46" r="14"/>
  <text class="bnum" x="776" y="50" text-anchor="middle">4</text>
  <text class="ptitle" x="798" y="51">Guided ODE sampling — zero-shot DA</text>

  <!-- observations -->
  <rect class="card" x="772" y="76" width="298" height="146" fill="#FDEFF1" stroke="#E3A9B4"/>
  <text class="ctitle" x="784" y="97">Observations  y</text>
  <g>
    <rect x="784" y="106" width="78" height="78" rx="4" fill="#FBFCFD" stroke="#D6C3C8"/>
    <path d="M793,175 C800,150 806,168 815,140 C824,116 834,132 845,118 L853,112"
          fill="none" stroke="#C9D6E2" stroke-width="1.2"/>
    <g fill="#C0392B">
      <circle cx="800" cy="122" r="2.6"/><circle cx="820" cy="132" r="2.6"/>
      <circle cx="843" cy="124" r="2.6"/><circle cx="796" cy="146" r="2.6"/>
      <circle cx="818" cy="156" r="2.6"/><circle cx="840" cy="150" r="2.6"/>
      <circle cx="806" cy="170" r="2.6"/><circle cx="830" cy="172" r="2.6"/>
      <circle cx="852" cy="164" r="2.6"/><circle cx="810" cy="112" r="2.6"/>
    </g>
    <rect x="784" y="106" width="78" height="78" rx="4" fill="none" stroke="#C79AA3"/>
  </g>
  <text class="lab" x="823" y="197" text-anchor="middle">sparse gauges</text>
  <text class="body" x="872" y="122">• BMD gauges (~35)</text>
  <text class="small" x="878" y="136">H = bilinear interpolation</text>
  <text class="body" x="872" y="157">• IMERG 0.1° (~3.5 k)</text>
  <text class="small" x="878" y="171">H = exact 2×2 block mean</text>
  <text class="small" x="872" y="192">σ<tspan class="sub" dy="3">IMERG</tspan><tspan dy="-3"> ≈ 3–5× σ</tspan><tspan class="sub" dy="3">gauge</tspan></text>
  <text class="small" x="872" y="205">pattern vs amplitude</text>

  <!-- likelihood -->
  <rect class="card" x="772" y="236" width="298" height="112" fill="#FDEFF1" stroke="#E3A9B4"/>
  <text class="ctitle" x="784" y="256">Likelihood &amp; guidance</text>
  <text class="eq" x="921" y="280" text-anchor="middle" font-size="11">p(y | x<tspan class="sub" dy="4">t</tspan><tspan dy="-4">) = N( y | H(x̂</tspan><tspan class="sub" dy="4">1</tspan><tspan dy="-4">),  R + Γ(1−t)²/t² )</tspan></text>
  <text class="eq" x="921" y="303" text-anchor="middle" font-size="11">x̂<tspan class="sub" dy="4">1</tspan><tspan dy="-4"> = x</tspan><tspan class="sub" dy="4">t</tspan><tspan dy="-4"> + (1−t)·u</tspan><tspan class="sub" dy="4">θ</tspan></text>
  <text class="eq" x="921" y="328" text-anchor="middle" font-size="11" font-weight="700" fill="#9C3B4C">Δu = ((1−t)/t) · ∇<tspan class="sub" dy="3">x</tspan><tspan dy="-3"> log p(y | x</tspan><tspan class="sub" dy="4">t</tspan><tspan dy="-4">)</tspan></text>
  <text class="lab" x="921" y="342" text-anchor="middle">score nudge → velocity nudge (Eq. C)</text>

  <!-- sampler -->
  <rect class="card" x="772" y="362" width="298" height="242" fill="#FFF8EC" stroke="#E3C692"/>
  <text class="ctitle" x="784" y="383">Heun ODE, 50 steps (100 NFE)</text>
  <text class="small" x="784" y="397">+ 2 Langevin corrector steps per level (SDA Alg. 4)</text>
  <g>
    <rect x="790" y="408" width="264" height="140" rx="6" fill="#FFFDF8" stroke="#E8D6B4"/>
    <g stroke="#EADFC8" stroke-width="0.8">
      <path d="M790,443 H1054 M790,478 H1054 M790,513 H1054"/>
    </g>
    <g fill="none" stroke-width="1.6" opacity="0.9">
      <path d="M800,530 C860,500 930,470 1046,452" stroke="#5D89C4"/>
      <path d="M800,500 C860,486 930,470 1046,462" stroke="#7C6BC4"/>
      <path d="M800,470 C860,468 930,468 1046,468" stroke="#3F8F6E"/>
      <path d="M800,436 C860,448 930,462 1046,474" stroke="#C08A2E"/>
      <path d="M800,418 C860,436 930,458 1046,484" stroke="#C0392B"/>
    </g>
    <g stroke="#B98F8F" stroke-width="1" stroke-dasharray="3 3">
      <path d="M880,408 V548"/><path d="M960,408 V548"/>
    </g>
    <text class="lab" x="880" y="404" text-anchor="middle">guidance applied at every step</text>
  </g>
  <text class="lab" x="800" y="562">t = 0  (noise)</text>
  <text class="lab" x="1044" y="562" text-anchor="end">t = 1  (analysis)</text>
  <text class="body" x="784" y="583">Ensemble = 16 members (different x<tspan class="sub" dy="4">0</tspan><tspan dy="-4"> draws)</tspan></text>
  <text class="small" x="784" y="597">Network never sees observations during training → new obs need no retraining</text>

  <path class="flow" d="M1086,300 H1112"/>

  <!-- ================= PANEL 5 : PRODUCT & VERIFICATION ================= -->
  <rect class="panel" x="1112" y="46" width="384" height="574" rx="14"/>
  <circle class="badge" cx="1132" cy="46" r="14"/>
  <text class="bnum" x="1132" y="50" text-anchor="middle">5</text>
  <text class="ptitle" x="1154" y="51">Product &amp; verification</text>

  <rect class="card" x="1128" y="76" width="352" height="252" fill="#EEF7F1" stroke="#A9CDB4"/>
  <text class="ctitle" x="1140" y="97">Daily 5 km ensemble reanalysis</text>
  <text class="csub"   x="1140" y="112">0.05°, 128×128, 16 members, 1981–2025</text>

  <!-- fanned ensemble maps -->
  <g>
    <rect x="1156" y="140" width="120" height="120" rx="5" fill="#F4F9F6" stroke="#B9D5C4"/>
    <rect x="1148" y="132" width="120" height="120" rx="5" fill="#F4F9F6" stroke="#B9D5C4"/>
    <rect x="1140" y="124" width="120" height="120" rx="5" fill="#FAFCFB" stroke="#9DC4AE"/>
    <rect x="1140" y="124" width="120" height="120" filter="url(#fFine)"/>
    <g fill="#C0392B">
      <circle cx="1166" cy="146" r="2"/><circle cx="1196" cy="158" r="2"/>
      <circle cx="1228" cy="150" r="2"/><circle cx="1158" cy="182" r="2"/>
      <circle cx="1192" cy="194" r="2"/><circle cx="1226" cy="188" r="2"/>
      <circle cx="1172" cy="216" r="2"/><circle cx="1210" cy="222" r="2"/>
    </g>
    <rect x="1140" y="124" width="120" height="120" rx="5" fill="none" stroke="#7FA98F"/>
    <text class="lab" x="1200" y="258" text-anchor="middle">member 1 … 16</text>
  </g>

  <!-- pdf inset -->
  <g>
    <rect x="1292" y="132" width="172" height="126" rx="6" fill="#FBFDFC" stroke="#C6DCCF"/>
    <path d="M1302,244 C1330,244 1340,150 1362,150 C1384,150 1392,220 1410,232 C1428,241 1440,243 1456,244"
          fill="none" stroke="#3F8F6E" stroke-width="1.8"/>
    <path d="M1302,244 C1330,244 1342,166 1364,166 C1386,166 1396,226 1414,236 C1432,242 1442,243 1456,244"
          fill="none" stroke="#5D89C4" stroke-width="1.4" stroke-dasharray="4 3"/>
    <path d="M1410,232 L1456,244 L1456,244 L1410,244 Z" fill="#C0392B" opacity="0.16"/>
    <path d="M1302,244 H1458" stroke="#B7C6BD" stroke-width="1"/>
    <text class="lab" x="1435" y="222" text-anchor="middle" font-size="8">heavy tail</text>
    <text class="lab" x="1302" y="256" font-size="8">0</text>
    <text class="lab" x="1458" y="256" text-anchor="end" font-size="8">mm/day</text>
    <text class="lab" x="1378" y="146" text-anchor="middle" font-size="8">analysis vs CHIRPS PDF</text>
  </g>
  <text class="small" x="1140" y="288">Modes: <tspan font-weight="700">background</tspan> (no obs) · <tspan font-weight="700">analysis</tspan> (obs) · <tspan font-weight="700">prior</tspan> (pure SDA)</text>
  <text class="small" x="1140" y="304">NetCDF: precip(time, member, lat, lon) + precip_mean</text>
  <text class="small" x="1140" y="320">~10–30 s per day per GPU for a guided 16-member ensemble</text>

  <!-- verification -->
  <rect class="card" x="1128" y="344" width="352" height="260" fill="#F2F6FA" stroke="#B8CBDD"/>
  <text class="ctitle" x="1140" y="365">Verification at withheld gauges (3-fold CV)</text>

  <g>
    <rect class="chip" x="1140" y="378" width="106" height="30"/><text class="chiptxt" x="1193" y="397" text-anchor="middle">CRPS</text>
    <rect class="chip" x="1256" y="378" width="106" height="30"/><text class="chiptxt" x="1309" y="397" text-anchor="middle">RMSE / MAE / bias</text>
    <rect class="chip" x="1372" y="378" width="96"  height="30"/><text class="chiptxt" x="1420" y="397" text-anchor="middle">spread–skill</text>

    <rect class="chip" x="1140" y="416" width="106" height="30"/><text class="chiptxt" x="1193" y="435" text-anchor="middle">rank histogram</text>
    <rect class="chip" x="1256" y="416" width="106" height="30"/><text class="chiptxt" x="1309" y="435" text-anchor="middle">FSS 1–100 mm</text>
    <rect class="chip" x="1372" y="416" width="96"  height="30"/><text class="chiptxt" x="1420" y="435" text-anchor="middle">SAL</text>

    <rect class="chip" x="1140" y="454" width="106" height="30"/><text class="chiptxt" x="1193" y="473" text-anchor="middle">POD/FAR/CSI</text>
    <rect class="chip" x="1256" y="454" width="106" height="30"/><text class="chiptxt" x="1309" y="473" text-anchor="middle">ETS</text>
    <rect class="chip" x="1372" y="454" width="96"  height="30"/><text class="chiptxt" x="1420" y="473" text-anchor="middle">tail PDF</text>
  </g>

  <text class="small" x="1140" y="508" font-weight="700" fill="#33475B">Baselines</text>
  <text class="small" x="1140" y="524">ERA5 bilinear · IMERG · CHIRPS · QM-ERA5 · OI/kriging · deterministic U-Net</text>
  <text class="small" x="1140" y="545" font-weight="700" fill="#33475B">Ablations</text>
  <text class="small" x="1140" y="561">IMERG condition vs assimilate vs off · Γ ∈ {1e-4,1e-3,1e-2}</text>
  <text class="small" x="1140" y="575">log1p vs sqrt transform · gauge density 5/10/20/35/100 · N members</text>
  <text class="small" x="1140" y="593" fill="#9C3B4C">Target to beat: −10% RMSE at left-out stations (Manshausen et al. 2025)</text>

  <!-- feedback arrow: pseudo-obs tuning -->
  <path class="flowd" d="M1300,604 C1300,634 900,640 921,610"/>
  <text class="lab" x="1120" y="646" text-anchor="middle">tune Γ, σ_obs on pseudo-observations (CHIRPS sampled at gauge sites) before using real gauges</text>
</svg>
